<mxfile host="app.diagrams.net" modified="2022-12-20T15:08:43.188Z" agent="5.0 (X11; Ubuntu)" etag="WydxF5NTZuaCH4Y_Bs2E" version="20.7.4" type="github">
  <diagram id="kgpKYQtTHZ0yAKxKKP6v" name="Page-1">
    <mxGraphModel dx="2252" dy="2946" grid="1" gridSize="10" guides="1" tooltips="1" connect="1" arrows="1" fold="1" page="1" pageScale="1" pageWidth="850" pageHeight="1100" math="0" shadow="0">
      <root>
        <mxCell id="0" />
        <mxCell id="1" parent="0" />
        <mxCell id="s_BYXz4qT-eq0fjf7td5-2" value="" style="ellipse;html=1;shape=startState;fillColor=#000000;strokeColor=#ff0000;" parent="1" vertex="1">
          <mxGeometry x="425" y="-130" width="30" height="30" as="geometry" />
        </mxCell>
        <mxCell id="s_BYXz4qT-eq0fjf7td5-3" value="" style="edgeStyle=orthogonalEdgeStyle;html=1;verticalAlign=bottom;endArrow=open;endSize=8;strokeColor=#ff0000;rounded=0;entryX=0.5;entryY=0;entryDx=0;entryDy=0;" parent="1" source="s_BYXz4qT-eq0fjf7td5-2" target="s_BYXz4qT-eq0fjf7td5-45" edge="1">
          <mxGeometry relative="1" as="geometry">
            <mxPoint x="440" y="-60" as="targetPoint" />
          </mxGeometry>
        </mxCell>
        <mxCell id="s_BYXz4qT-eq0fjf7td5-54" value="" style="edgeStyle=orthogonalEdgeStyle;rounded=0;orthogonalLoop=1;jettySize=auto;html=1;fontSize=14;fontColor=#000000;entryX=0.5;entryY=0;entryDx=0;entryDy=0;" parent="1" source="s_BYXz4qT-eq0fjf7td5-4" target="s_BYXz4qT-eq0fjf7td5-53" edge="1">
          <mxGeometry relative="1" as="geometry">
            <mxPoint x="440" y="240" as="targetPoint" />
          </mxGeometry>
        </mxCell>
        <mxCell id="s_BYXz4qT-eq0fjf7td5-4" value="Action" style="rounded=1;whiteSpace=wrap;html=1;strokeWidth=2;fillWeight=4;hachureGap=8;hachureAngle=45;fillColor=#1ba1e2;sketch=1;" parent="1" vertex="1">
          <mxGeometry x="380" y="140" width="120" height="60" as="geometry" />
        </mxCell>
        <mxCell id="s_BYXz4qT-eq0fjf7td5-7" value="Initial Node" style="text;html=1;align=center;verticalAlign=middle;resizable=0;points=[];autosize=1;strokeColor=none;fillColor=none;fontSize=14;fontColor=#000000;" parent="1" vertex="1">
          <mxGeometry x="395" y="-160" width="90" height="30" as="geometry" />
        </mxCell>
        <mxCell id="s_BYXz4qT-eq0fjf7td5-22" value="&lt;div&gt;Play card&lt;/div&gt;" style="text;html=1;strokeColor=none;fillColor=none;align=center;verticalAlign=middle;whiteSpace=wrap;rounded=0;fontSize=14;fontColor=#000000;" parent="1" vertex="1">
          <mxGeometry x="530" y="320" width="60" height="30" as="geometry" />
        </mxCell>
        <mxCell id="eqHWDvqcZG0WB3tzP_YS-23" value="" style="edgeStyle=orthogonalEdgeStyle;rounded=0;orthogonalLoop=1;jettySize=auto;html=1;" edge="1" parent="1" source="s_BYXz4qT-eq0fjf7td5-27" target="eqHWDvqcZG0WB3tzP_YS-22">
          <mxGeometry relative="1" as="geometry" />
        </mxCell>
        <mxCell id="s_BYXz4qT-eq0fjf7td5-27" value="Action" style="rounded=1;whiteSpace=wrap;html=1;strokeWidth=2;fillWeight=4;hachureGap=8;hachureAngle=45;fillColor=#1ba1e2;sketch=1;fontSize=14;fontColor=#000000;" parent="1" vertex="1">
          <mxGeometry x="595" y="-20" width="120" height="60" as="geometry" />
        </mxCell>
        <mxCell id="s_BYXz4qT-eq0fjf7td5-32" value="&lt;h1&gt;Card Rules &lt;br&gt;&lt;/h1&gt;&lt;p&gt;7, 8&lt;/p&gt;&lt;p&gt;Look at someone else&#39;s card&lt;/p&gt;&lt;p&gt;&lt;br&gt;&lt;/p&gt;&lt;p&gt;9, 10&lt;/p&gt;&lt;p&gt;Look at own card&lt;/p&gt;&lt;p&gt;&lt;br&gt;&lt;/p&gt;&lt;p&gt;Jack&lt;/p&gt;&lt;p&gt;Blind switch, with one of your own. Must switch.&lt;br&gt;&lt;/p&gt;&lt;p&gt;&lt;br&gt;&lt;/p&gt;&lt;p&gt;Queen&lt;/p&gt;&lt;p&gt;Look at someone else&#39;s card and one of your own. Choose to switch.&lt;br&gt;&lt;/p&gt;" style="text;html=1;strokeColor=none;fillColor=none;spacing=5;spacingTop=-20;whiteSpace=wrap;overflow=hidden;rounded=0;fontSize=14;fontColor=#000000;" parent="1" vertex="1">
          <mxGeometry x="-670" y="20" width="270" height="440" as="geometry" />
        </mxCell>
        <mxCell id="s_BYXz4qT-eq0fjf7td5-33" value="Say &quot;Cambio&quot;" style="text;html=1;align=center;verticalAlign=middle;resizable=0;points=[];autosize=1;strokeColor=none;fillColor=none;fontSize=14;fontColor=#000000;" parent="1" vertex="1">
          <mxGeometry x="595" y="-60" width="110" height="30" as="geometry" />
        </mxCell>
        <mxCell id="s_BYXz4qT-eq0fjf7td5-34" value="&lt;div&gt;Pick a card, from the discard pile or deck&lt;/div&gt;" style="text;html=1;align=center;verticalAlign=middle;resizable=0;points=[];autosize=1;strokeColor=none;fillColor=none;fontSize=14;fontColor=#000000;" parent="1" vertex="1">
          <mxGeometry x="300" y="100" width="280" height="30" as="geometry" />
        </mxCell>
        <mxCell id="s_BYXz4qT-eq0fjf7td5-41" style="edgeStyle=orthogonalEdgeStyle;rounded=0;orthogonalLoop=1;jettySize=auto;html=1;exitX=0.5;exitY=1;exitDx=0;exitDy=0;entryX=0.5;entryY=0;entryDx=0;entryDy=0;fontSize=14;fontColor=#000000;startArrow=none;" parent="1" source="s_BYXz4qT-eq0fjf7td5-23" target="s_BYXz4qT-eq0fjf7td5-40" edge="1">
          <mxGeometry relative="1" as="geometry" />
        </mxCell>
        <mxCell id="s_BYXz4qT-eq0fjf7td5-36" value="Action" style="rounded=1;whiteSpace=wrap;html=1;strokeWidth=2;fillWeight=4;hachureGap=8;hachureAngle=45;fillColor=#1ba1e2;sketch=1;fontSize=14;fontColor=#000000;" parent="1" vertex="1">
          <mxGeometry x="260" y="360" width="120" height="60" as="geometry" />
        </mxCell>
        <mxCell id="s_BYXz4qT-eq0fjf7td5-37" value="Action" style="rounded=1;whiteSpace=wrap;html=1;strokeWidth=2;fillWeight=4;hachureGap=8;hachureAngle=45;fillColor=#1ba1e2;sketch=1;fontSize=14;fontColor=#000000;" parent="1" vertex="1">
          <mxGeometry x="500" y="360" width="120" height="60" as="geometry" />
        </mxCell>
        <mxCell id="s_BYXz4qT-eq0fjf7td5-39" value="Swap card" style="text;html=1;strokeColor=none;fillColor=none;align=center;verticalAlign=middle;whiteSpace=wrap;rounded=0;fontSize=14;fontColor=#000000;" parent="1" vertex="1">
          <mxGeometry x="275" y="320" width="90" height="30" as="geometry" />
        </mxCell>
        <mxCell id="s_BYXz4qT-eq0fjf7td5-52" style="edgeStyle=orthogonalEdgeStyle;rounded=0;orthogonalLoop=1;jettySize=auto;html=1;exitX=0;exitY=0.5;exitDx=0;exitDy=0;entryX=0;entryY=0.5;entryDx=0;entryDy=0;fontSize=14;fontColor=#000000;" parent="1" source="s_BYXz4qT-eq0fjf7td5-40" target="s_BYXz4qT-eq0fjf7td5-2" edge="1">
          <mxGeometry relative="1" as="geometry">
            <Array as="points">
              <mxPoint y="580" />
              <mxPoint y="-115" />
            </Array>
          </mxGeometry>
        </mxCell>
        <mxCell id="s_BYXz4qT-eq0fjf7td5-58" value="" style="edgeStyle=orthogonalEdgeStyle;rounded=0;orthogonalLoop=1;jettySize=auto;html=1;fontSize=14;fontColor=#000000;startArrow=none;" parent="1" source="s_BYXz4qT-eq0fjf7td5-59" target="s_BYXz4qT-eq0fjf7td5-57" edge="1">
          <mxGeometry relative="1" as="geometry" />
        </mxCell>
        <mxCell id="s_BYXz4qT-eq0fjf7td5-40" value="Action" style="rounded=1;whiteSpace=wrap;html=1;strokeWidth=2;fillWeight=4;hachureGap=8;hachureAngle=45;fillColor=#1ba1e2;sketch=1;fontSize=14;fontColor=#000000;" parent="1" vertex="1">
          <mxGeometry x="260" y="550" width="120" height="60" as="geometry" />
        </mxCell>
        <mxCell id="s_BYXz4qT-eq0fjf7td5-23" value="Discard" style="text;html=1;strokeColor=none;fillColor=none;align=center;verticalAlign=middle;whiteSpace=wrap;rounded=0;fontSize=14;fontColor=#000000;" parent="1" vertex="1">
          <mxGeometry x="290" y="510" width="60" height="30" as="geometry" />
        </mxCell>
        <mxCell id="s_BYXz4qT-eq0fjf7td5-42" value="" style="edgeStyle=orthogonalEdgeStyle;rounded=0;orthogonalLoop=1;jettySize=auto;html=1;exitX=0.5;exitY=1;exitDx=0;exitDy=0;entryX=0.5;entryY=0;entryDx=0;entryDy=0;fontSize=14;fontColor=#000000;endArrow=none;" parent="1" source="s_BYXz4qT-eq0fjf7td5-36" target="s_BYXz4qT-eq0fjf7td5-23" edge="1">
          <mxGeometry relative="1" as="geometry">
            <mxPoint x="320" y="420" as="sourcePoint" />
            <mxPoint x="320" y="470" as="targetPoint" />
          </mxGeometry>
        </mxCell>
        <mxCell id="s_BYXz4qT-eq0fjf7td5-48" style="edgeStyle=orthogonalEdgeStyle;rounded=0;orthogonalLoop=1;jettySize=auto;html=1;exitX=0.5;exitY=1;exitDx=0;exitDy=0;entryX=0.5;entryY=0;entryDx=0;entryDy=0;fontSize=14;fontColor=#000000;" parent="1" source="s_BYXz4qT-eq0fjf7td5-45" target="s_BYXz4qT-eq0fjf7td5-4" edge="1">
          <mxGeometry relative="1" as="geometry" />
        </mxCell>
        <mxCell id="s_BYXz4qT-eq0fjf7td5-50" style="edgeStyle=orthogonalEdgeStyle;rounded=0;orthogonalLoop=1;jettySize=auto;html=1;exitX=1;exitY=0.5;exitDx=0;exitDy=0;entryX=0;entryY=0.5;entryDx=0;entryDy=0;fontSize=14;fontColor=#000000;" parent="1" source="s_BYXz4qT-eq0fjf7td5-45" target="s_BYXz4qT-eq0fjf7td5-27" edge="1">
          <mxGeometry relative="1" as="geometry" />
        </mxCell>
        <mxCell id="s_BYXz4qT-eq0fjf7td5-45" value="" style="rhombus;whiteSpace=wrap;html=1;fontSize=14;fillColor=#1ba1e2;fontColor=#000000;rounded=1;strokeWidth=2;fillWeight=4;hachureGap=8;hachureAngle=45;sketch=1;" parent="1" vertex="1">
          <mxGeometry x="400" y="-30" width="80" height="80" as="geometry" />
        </mxCell>
        <mxCell id="s_BYXz4qT-eq0fjf7td5-55" style="edgeStyle=orthogonalEdgeStyle;rounded=0;orthogonalLoop=1;jettySize=auto;html=1;exitX=1;exitY=0.5;exitDx=0;exitDy=0;entryX=0.5;entryY=0;entryDx=0;entryDy=0;fontSize=14;fontColor=#000000;" parent="1" source="s_BYXz4qT-eq0fjf7td5-53" target="s_BYXz4qT-eq0fjf7td5-37" edge="1">
          <mxGeometry relative="1" as="geometry" />
        </mxCell>
        <mxCell id="s_BYXz4qT-eq0fjf7td5-56" style="edgeStyle=orthogonalEdgeStyle;rounded=0;orthogonalLoop=1;jettySize=auto;html=1;exitX=0;exitY=0.5;exitDx=0;exitDy=0;fontSize=14;fontColor=#000000;entryX=0.5;entryY=0;entryDx=0;entryDy=0;" parent="1" source="s_BYXz4qT-eq0fjf7td5-53" target="s_BYXz4qT-eq0fjf7td5-36" edge="1">
          <mxGeometry relative="1" as="geometry">
            <mxPoint x="330" y="280" as="targetPoint" />
          </mxGeometry>
        </mxCell>
        <mxCell id="s_BYXz4qT-eq0fjf7td5-53" value="" style="rhombus;whiteSpace=wrap;html=1;fillColor=#1ba1e2;rounded=1;strokeWidth=2;fillWeight=4;hachureGap=8;hachureAngle=45;sketch=1;" parent="1" vertex="1">
          <mxGeometry x="400" y="260" width="80" height="80" as="geometry" />
        </mxCell>
        <mxCell id="s_BYXz4qT-eq0fjf7td5-62" value="" style="edgeStyle=orthogonalEdgeStyle;rounded=0;orthogonalLoop=1;jettySize=auto;html=1;fontSize=14;fontColor=#000000;" parent="1" source="s_BYXz4qT-eq0fjf7td5-57" target="s_BYXz4qT-eq0fjf7td5-61" edge="1">
          <mxGeometry relative="1" as="geometry" />
        </mxCell>
        <mxCell id="s_BYXz4qT-eq0fjf7td5-57" value="Action" style="rounded=1;whiteSpace=wrap;html=1;strokeWidth=2;fillWeight=4;hachureGap=8;hachureAngle=45;fillColor=#1ba1e2;sketch=1;fontSize=14;fontColor=#000000;" parent="1" vertex="1">
          <mxGeometry x="260" y="690" width="120" height="60" as="geometry" />
        </mxCell>
        <mxCell id="s_BYXz4qT-eq0fjf7td5-59" value="Knock" style="text;html=1;strokeColor=none;fillColor=none;align=center;verticalAlign=middle;whiteSpace=wrap;rounded=0;fontSize=14;fontColor=#000000;" parent="1" vertex="1">
          <mxGeometry x="290" y="650" width="60" height="30" as="geometry" />
        </mxCell>
        <mxCell id="s_BYXz4qT-eq0fjf7td5-60" value="" style="edgeStyle=orthogonalEdgeStyle;rounded=0;orthogonalLoop=1;jettySize=auto;html=1;fontSize=14;fontColor=#000000;endArrow=none;" parent="1" source="s_BYXz4qT-eq0fjf7td5-40" target="s_BYXz4qT-eq0fjf7td5-59" edge="1">
          <mxGeometry relative="1" as="geometry">
            <mxPoint x="320" y="610" as="sourcePoint" />
            <mxPoint x="320" y="690" as="targetPoint" />
          </mxGeometry>
        </mxCell>
        <mxCell id="s_BYXz4qT-eq0fjf7td5-64" value="" style="edgeStyle=orthogonalEdgeStyle;rounded=0;orthogonalLoop=1;jettySize=auto;html=1;fontSize=14;fontColor=#000000;" parent="1" source="s_BYXz4qT-eq0fjf7td5-61" target="s_BYXz4qT-eq0fjf7td5-63" edge="1">
          <mxGeometry relative="1" as="geometry" />
        </mxCell>
        <mxCell id="s_BYXz4qT-eq0fjf7td5-74" value="" style="edgeStyle=orthogonalEdgeStyle;rounded=0;orthogonalLoop=1;jettySize=auto;html=1;fontSize=14;fontColor=#000000;" parent="1" source="s_BYXz4qT-eq0fjf7td5-61" target="s_BYXz4qT-eq0fjf7td5-73" edge="1">
          <mxGeometry relative="1" as="geometry" />
        </mxCell>
        <mxCell id="s_BYXz4qT-eq0fjf7td5-61" value="" style="rhombus;whiteSpace=wrap;html=1;fontSize=14;fillColor=#1ba1e2;fontColor=#000000;rounded=1;strokeWidth=2;fillWeight=4;hachureGap=8;hachureAngle=45;sketch=1;" parent="1" vertex="1">
          <mxGeometry x="280" y="820" width="80" height="80" as="geometry" />
        </mxCell>
        <mxCell id="eqHWDvqcZG0WB3tzP_YS-17" style="edgeStyle=orthogonalEdgeStyle;rounded=0;orthogonalLoop=1;jettySize=auto;html=1;exitX=1;exitY=0.5;exitDx=0;exitDy=0;entryX=1;entryY=0.5;entryDx=0;entryDy=0;" edge="1" parent="1" source="s_BYXz4qT-eq0fjf7td5-63" target="s_BYXz4qT-eq0fjf7td5-2">
          <mxGeometry relative="1" as="geometry">
            <Array as="points">
              <mxPoint x="990" y="860" />
              <mxPoint x="990" y="-115" />
            </Array>
          </mxGeometry>
        </mxCell>
        <mxCell id="s_BYXz4qT-eq0fjf7td5-63" value="" style="whiteSpace=wrap;html=1;fontSize=14;fillColor=#1ba1e2;fontColor=#000000;rounded=1;strokeWidth=2;fillWeight=4;hachureGap=8;hachureAngle=45;sketch=1;" parent="1" vertex="1">
          <mxGeometry x="540" y="830" width="120" height="60" as="geometry" />
        </mxCell>
        <mxCell id="s_BYXz4qT-eq0fjf7td5-69" value="Select correct card(s)" style="text;html=1;strokeColor=none;fillColor=none;align=center;verticalAlign=middle;whiteSpace=wrap;rounded=0;fontSize=14;fontColor=#000000;" parent="1" vertex="1">
          <mxGeometry x="225" y="940" width="190" height="30" as="geometry" />
        </mxCell>
        <mxCell id="s_BYXz4qT-eq0fjf7td5-70" value="&lt;div&gt;Select incorrect cards&lt;/div&gt;" style="text;html=1;strokeColor=none;fillColor=none;align=center;verticalAlign=middle;whiteSpace=wrap;rounded=0;fontSize=14;fontColor=#000000;" parent="1" vertex="1">
          <mxGeometry x="365" y="830" width="160" height="30" as="geometry" />
        </mxCell>
        <mxCell id="s_BYXz4qT-eq0fjf7td5-71" value="Pick up card from deck" style="text;html=1;strokeColor=none;fillColor=none;align=center;verticalAlign=middle;whiteSpace=wrap;rounded=0;fontSize=14;fontColor=#000000;" parent="1" vertex="1">
          <mxGeometry x="520" y="790" width="160" height="30" as="geometry" />
        </mxCell>
        <mxCell id="s_BYXz4qT-eq0fjf7td5-76" value="" style="edgeStyle=orthogonalEdgeStyle;rounded=0;orthogonalLoop=1;jettySize=auto;html=1;fontSize=14;fontColor=#000000;" parent="1" source="s_BYXz4qT-eq0fjf7td5-73" target="s_BYXz4qT-eq0fjf7td5-75" edge="1">
          <mxGeometry relative="1" as="geometry" />
        </mxCell>
        <mxCell id="s_BYXz4qT-eq0fjf7td5-78" value="" style="edgeStyle=orthogonalEdgeStyle;rounded=0;orthogonalLoop=1;jettySize=auto;html=1;fontSize=14;fontColor=#000000;startArrow=none;" parent="1" source="s_BYXz4qT-eq0fjf7td5-72" target="s_BYXz4qT-eq0fjf7td5-77" edge="1">
          <mxGeometry relative="1" as="geometry" />
        </mxCell>
        <mxCell id="s_BYXz4qT-eq0fjf7td5-73" value="" style="rhombus;whiteSpace=wrap;html=1;fontSize=14;fillColor=#1ba1e2;fontColor=#000000;rounded=1;strokeWidth=2;fillWeight=4;hachureGap=8;hachureAngle=45;sketch=1;" parent="1" vertex="1">
          <mxGeometry x="280" y="980" width="80" height="80" as="geometry" />
        </mxCell>
        <mxCell id="eqHWDvqcZG0WB3tzP_YS-3" value="" style="edgeStyle=orthogonalEdgeStyle;rounded=0;orthogonalLoop=1;jettySize=auto;html=1;" edge="1" parent="1" source="s_BYXz4qT-eq0fjf7td5-75" target="eqHWDvqcZG0WB3tzP_YS-2">
          <mxGeometry relative="1" as="geometry" />
        </mxCell>
        <mxCell id="s_BYXz4qT-eq0fjf7td5-75" value="" style="whiteSpace=wrap;html=1;fontSize=14;fillColor=#1ba1e2;fontColor=#000000;rounded=1;strokeWidth=2;fillWeight=4;hachureGap=8;hachureAngle=45;sketch=1;" parent="1" vertex="1">
          <mxGeometry x="540" y="990" width="120" height="60" as="geometry" />
        </mxCell>
        <mxCell id="eqHWDvqcZG0WB3tzP_YS-13" value="" style="edgeStyle=orthogonalEdgeStyle;rounded=0;orthogonalLoop=1;jettySize=auto;html=1;" edge="1" parent="1" source="s_BYXz4qT-eq0fjf7td5-77" target="eqHWDvqcZG0WB3tzP_YS-12">
          <mxGeometry relative="1" as="geometry" />
        </mxCell>
        <mxCell id="s_BYXz4qT-eq0fjf7td5-77" value="" style="whiteSpace=wrap;html=1;fontSize=14;fillColor=#1ba1e2;fontColor=#000000;rounded=1;strokeWidth=2;fillWeight=4;hachureGap=8;hachureAngle=45;sketch=1;" parent="1" vertex="1">
          <mxGeometry x="260" y="1150" width="120" height="60" as="geometry" />
        </mxCell>
        <mxCell id="s_BYXz4qT-eq0fjf7td5-79" value="&lt;div&gt;Choose another player(s)&#39;s card(s)&lt;/div&gt;" style="text;html=1;strokeColor=none;fillColor=none;align=center;verticalAlign=middle;whiteSpace=wrap;rounded=0;fontSize=14;fontColor=#000000;" parent="1" vertex="1">
          <mxGeometry x="370" y="970" width="155" height="60" as="geometry" />
        </mxCell>
        <mxCell id="s_BYXz4qT-eq0fjf7td5-72" value="Discard card" style="text;html=1;strokeColor=none;fillColor=none;align=center;verticalAlign=middle;whiteSpace=wrap;rounded=0;fontSize=14;fontColor=#000000;" parent="1" vertex="1">
          <mxGeometry x="260" y="1110" width="120" height="30" as="geometry" />
        </mxCell>
        <mxCell id="s_BYXz4qT-eq0fjf7td5-81" value="" style="edgeStyle=orthogonalEdgeStyle;rounded=0;orthogonalLoop=1;jettySize=auto;html=1;fontSize=14;fontColor=#000000;endArrow=none;" parent="1" source="s_BYXz4qT-eq0fjf7td5-73" target="s_BYXz4qT-eq0fjf7td5-72" edge="1">
          <mxGeometry relative="1" as="geometry">
            <mxPoint x="320" y="1060" as="sourcePoint" />
            <mxPoint x="320" y="1150" as="targetPoint" />
          </mxGeometry>
        </mxCell>
        <mxCell id="eqHWDvqcZG0WB3tzP_YS-1" value="&lt;div&gt;Give one of your cards to this player&lt;br&gt;&lt;/div&gt;" style="text;html=1;strokeColor=none;fillColor=none;align=center;verticalAlign=middle;whiteSpace=wrap;rounded=0;" vertex="1" parent="1">
          <mxGeometry x="740" y="940" width="120" height="50" as="geometry" />
        </mxCell>
        <mxCell id="eqHWDvqcZG0WB3tzP_YS-19" value="" style="edgeStyle=orthogonalEdgeStyle;rounded=0;orthogonalLoop=1;jettySize=auto;html=1;" edge="1" parent="1" source="eqHWDvqcZG0WB3tzP_YS-2" target="eqHWDvqcZG0WB3tzP_YS-18">
          <mxGeometry relative="1" as="geometry" />
        </mxCell>
        <mxCell id="eqHWDvqcZG0WB3tzP_YS-2" value="" style="whiteSpace=wrap;html=1;fontSize=14;fillColor=#1ba1e2;fontColor=#000000;rounded=1;strokeWidth=2;fillWeight=4;hachureGap=8;hachureAngle=45;sketch=1;" vertex="1" parent="1">
          <mxGeometry x="740" y="990" width="120" height="60" as="geometry" />
        </mxCell>
        <mxCell id="eqHWDvqcZG0WB3tzP_YS-10" value="No cards left" style="text;html=1;strokeColor=none;fillColor=none;align=center;verticalAlign=middle;whiteSpace=wrap;rounded=0;" vertex="1" parent="1">
          <mxGeometry x="427.5" y="1240" width="105" height="30" as="geometry" />
        </mxCell>
        <mxCell id="eqHWDvqcZG0WB3tzP_YS-15" value="" style="edgeStyle=orthogonalEdgeStyle;rounded=0;orthogonalLoop=1;jettySize=auto;html=1;" edge="1" parent="1" source="eqHWDvqcZG0WB3tzP_YS-12" target="eqHWDvqcZG0WB3tzP_YS-14">
          <mxGeometry relative="1" as="geometry" />
        </mxCell>
        <mxCell id="eqHWDvqcZG0WB3tzP_YS-16" style="edgeStyle=orthogonalEdgeStyle;rounded=0;orthogonalLoop=1;jettySize=auto;html=1;entryX=0;entryY=0.5;entryDx=0;entryDy=0;" edge="1" parent="1" source="eqHWDvqcZG0WB3tzP_YS-12" target="s_BYXz4qT-eq0fjf7td5-45">
          <mxGeometry relative="1" as="geometry">
            <mxPoint x="-50" y="40" as="targetPoint" />
            <Array as="points">
              <mxPoint x="-150" y="1320" />
              <mxPoint x="-150" y="10" />
            </Array>
          </mxGeometry>
        </mxCell>
        <mxCell id="eqHWDvqcZG0WB3tzP_YS-12" value="" style="rhombus;whiteSpace=wrap;html=1;fontSize=14;fillColor=#1ba1e2;fontColor=#000000;rounded=1;strokeWidth=2;fillWeight=4;hachureGap=8;hachureAngle=45;sketch=1;" vertex="1" parent="1">
          <mxGeometry x="280" y="1280" width="80" height="80" as="geometry" />
        </mxCell>
        <mxCell id="eqHWDvqcZG0WB3tzP_YS-14" value="" style="ellipse;whiteSpace=wrap;html=1;fontSize=14;fillColor=#1ba1e2;fontColor=#000000;rounded=1;strokeWidth=2;fillWeight=4;hachureGap=8;hachureAngle=45;sketch=1;" vertex="1" parent="1">
          <mxGeometry x="440" y="1280" width="80" height="80" as="geometry" />
        </mxCell>
        <mxCell id="eqHWDvqcZG0WB3tzP_YS-20" style="edgeStyle=orthogonalEdgeStyle;rounded=0;orthogonalLoop=1;jettySize=auto;html=1;entryX=1;entryY=0.5;entryDx=0;entryDy=0;" edge="1" parent="1" source="eqHWDvqcZG0WB3tzP_YS-18" target="eqHWDvqcZG0WB3tzP_YS-14">
          <mxGeometry relative="1" as="geometry">
            <Array as="points">
              <mxPoint x="800" y="1320" />
            </Array>
          </mxGeometry>
        </mxCell>
        <mxCell id="eqHWDvqcZG0WB3tzP_YS-21" style="edgeStyle=orthogonalEdgeStyle;rounded=0;orthogonalLoop=1;jettySize=auto;html=1;exitX=1;exitY=0.5;exitDx=0;exitDy=0;entryX=1;entryY=0.5;entryDx=0;entryDy=0;" edge="1" parent="1" source="eqHWDvqcZG0WB3tzP_YS-18" target="s_BYXz4qT-eq0fjf7td5-2">
          <mxGeometry relative="1" as="geometry">
            <Array as="points">
              <mxPoint x="1090" y="1160" />
              <mxPoint x="1090" y="-115" />
            </Array>
          </mxGeometry>
        </mxCell>
        <mxCell id="eqHWDvqcZG0WB3tzP_YS-18" value="" style="rhombus;whiteSpace=wrap;html=1;fontSize=14;fillColor=#1ba1e2;fontColor=#000000;rounded=1;strokeWidth=2;fillWeight=4;hachureGap=8;hachureAngle=45;sketch=1;" vertex="1" parent="1">
          <mxGeometry x="760" y="1120" width="80" height="80" as="geometry" />
        </mxCell>
        <mxCell id="eqHWDvqcZG0WB3tzP_YS-22" value="" style="ellipse;whiteSpace=wrap;html=1;fontSize=14;fillColor=#1ba1e2;fontColor=#000000;rounded=1;strokeWidth=2;fillWeight=4;hachureGap=8;hachureAngle=45;sketch=1;" vertex="1" parent="1">
          <mxGeometry x="815" y="-30" width="80" height="80" as="geometry" />
        </mxCell>
      </root>
    </mxGraphModel>
  </diagram>
</mxfile>
